<svg xmlns="http://www.w3.org/2000/svg" xmlns:xlink="http://www.w3.org/1999/xlink" width="500" zoomAndPan="magnify" viewBox="0 0 375 374.999991" height="500" preserveAspectRatio="xMidYMid meet" version="1.0"><defs><g/></defs><g fill="#100a09" fill-opacity="1"><g transform="translate(95.073812, 204.035264)"><g><path d="M 36.53125 -3 C 36.132812 -3.125 35.6875 -3.816406 35.1875 -5.078125 C 34.6875 -6.347656 34.15625 -7.914062 33.59375 -9.78125 C 33.03125 -11.644531 32.5 -13.570312 32 -15.5625 C 31.5 -17.5625 31.046875 -19.359375 30.640625 -20.953125 C 30.242188 -22.554688 29.976562 -23.722656 29.84375 -24.453125 L 22.0625 -24.359375 C 21.332031 -21.359375 20.695312 -18.378906 20.15625 -15.421875 C 19.625 -12.460938 19.226562 -9.453125 18.96875 -6.390625 C 18.96875 -5.785156 18.679688 -5.484375 18.109375 -5.484375 C 17.546875 -5.484375 17.300781 -5.785156 17.375 -6.390625 C 17.632812 -9.378906 18.015625 -12.390625 18.515625 -15.421875 C 19.015625 -18.453125 19.734375 -21.429688 20.671875 -24.359375 L 19.765625 -24.359375 C 19.429688 -23.160156 19.097656 -21.710938 18.765625 -20.015625 C 18.429688 -18.316406 18.113281 -16.648438 17.8125 -15.015625 C 17.519531 -13.390625 17.269531 -12.023438 17.0625 -10.921875 C 16.863281 -9.828125 16.765625 -9.28125 16.765625 -9.28125 L 16.171875 -4.796875 C 15.972656 -2.523438 15.207031 -0.894531 13.875 0.09375 C 12.539062 1.09375 11.078125 1.492188 9.484375 1.296875 C 7.890625 1.097656 6.539062 0.332031 5.4375 -1 C 4.34375 -2.332031 3.960938 -4.160156 4.296875 -6.484375 C 4.691406 -9.410156 5.15625 -12.335938 5.6875 -15.265625 C 6.21875 -18.203125 6.851562 -21.097656 7.59375 -23.953125 C 7.125 -23.890625 6.65625 -23.84375 6.1875 -23.8125 C 5.71875 -23.78125 5.285156 -23.765625 4.890625 -23.765625 C 5.023438 -24.097656 5.054688 -24.394531 4.984375 -24.65625 C 3.390625 -25.050781 2.226562 -25.914062 1.5 -27.25 C 0.769531 -28.582031 0.566406 -30.0625 0.890625 -31.6875 C 1.222656 -33.320312 2.15625 -34.820312 3.6875 -36.1875 C 5.21875 -37.550781 7.484375 -38.46875 10.484375 -38.9375 C 11.210938 -42.257812 12.007812 -45.535156 12.875 -48.765625 C 13.738281 -51.992188 14.804688 -55.140625 16.078125 -58.203125 C 16.671875 -59.535156 17.332031 -60.984375 18.0625 -62.546875 C 18.800781 -64.109375 19.71875 -65.46875 20.8125 -66.625 C 21.914062 -67.789062 23.296875 -68.375 24.953125 -68.375 C 25.816406 -68.445312 26.679688 -68.21875 27.546875 -67.6875 C 28.410156 -67.15625 29.046875 -66.488281 29.453125 -65.6875 C 30.910156 -65.625 32.125 -65.109375 33.09375 -64.140625 C 34.0625 -63.171875 34.609375 -61.890625 34.734375 -60.296875 C 34.867188 -58.296875 35.035156 -56.28125 35.234375 -54.25 C 35.429688 -52.226562 35.632812 -50.25 35.84375 -48.3125 C 35.90625 -48.25 35.96875 -48.21875 36.03125 -48.21875 C 36.101562 -49.945312 36.1875 -51.660156 36.28125 -53.359375 C 36.382812 -55.054688 36.535156 -56.738281 36.734375 -58.40625 C 36.734375 -58.664062 36.78125 -58.0625 36.875 -56.59375 C 36.976562 -55.132812 37.097656 -53.253906 37.234375 -50.953125 C 37.367188 -48.660156 37.5 -46.363281 37.625 -44.0625 C 37.757812 -41.769531 37.929688 -39.859375 38.140625 -38.328125 C 40.066406 -38.128906 41.5625 -37.476562 42.625 -36.375 C 43.6875 -35.28125 44.347656 -34.019531 44.609375 -32.59375 C 44.878906 -31.164062 44.75 -29.75 44.21875 -28.34375 C 43.6875 -26.945312 42.722656 -25.816406 41.328125 -24.953125 C 41.992188 -22.023438 42.691406 -18.710938 43.421875 -15.015625 C 44.148438 -11.328125 44.71875 -7.984375 45.125 -4.984375 C 45.382812 -2.722656 45.195312 -1.015625 44.5625 0.140625 C 43.9375 1.304688 43.109375 1.957031 42.078125 2.09375 C 41.046875 2.226562 40.015625 1.863281 38.984375 1 C 37.953125 0.132812 37.132812 -1.195312 36.53125 -3 Z M 21.765625 -37.328125 C 22.492188 -37.460938 23.441406 -37.546875 24.609375 -37.578125 C 25.773438 -37.617188 26.691406 -37.671875 27.359375 -37.734375 C 27.222656 -38.597656 27.070312 -39.828125 26.90625 -41.421875 C 26.738281 -43.023438 26.535156 -44.738281 26.296875 -46.5625 C 26.066406 -48.394531 25.785156 -50.078125 25.453125 -51.609375 C 24.660156 -48.816406 23.960938 -46.320312 23.359375 -44.125 C 22.765625 -41.925781 22.234375 -39.660156 21.765625 -37.328125 Z M 21.765625 -37.328125 "/></g></g></g><g fill="#100a09" fill-opacity="1"><g transform="translate(137.598089, 204.035264)"><g><path d="M 48.125 -19.265625 C 47.382812 -16.804688 46.414062 -14.410156 45.21875 -12.078125 C 44.019531 -9.742188 42.457031 -7.710938 40.53125 -5.984375 C 40.332031 -5.859375 40.097656 -5.660156 39.828125 -5.390625 C 39.359375 -4.921875 38.722656 -4.335938 37.921875 -3.640625 C 37.128906 -2.941406 36.300781 -2.394531 35.4375 -2 C 33.175781 -0.53125 30.710938 0.117188 28.046875 -0.046875 C 25.390625 -0.210938 22.84375 -0.941406 20.40625 -2.234375 C 17.976562 -3.535156 15.9375 -5.15625 14.28125 -7.09375 C 12.613281 -9.019531 11.210938 -11.179688 10.078125 -13.578125 C 9.484375 -13.515625 8.882812 -13.628906 8.28125 -13.921875 C 7.6875 -14.222656 7.222656 -14.738281 6.890625 -15.46875 C 4.421875 -21.65625 3.035156 -28.125 2.734375 -34.875 C 2.441406 -41.632812 3.03125 -48.242188 4.5 -54.703125 C 4.894531 -56.367188 5.507812 -58.050781 6.34375 -59.75 C 7.175781 -61.445312 8.273438 -62.8125 9.640625 -63.84375 C 11.003906 -64.875 12.679688 -65.222656 14.671875 -64.890625 C 15.867188 -64.753906 16.945312 -64.300781 17.90625 -63.53125 C 18.875 -62.769531 19.59375 -61.828125 20.0625 -60.703125 C 20.59375 -59.234375 20.640625 -57.613281 20.203125 -55.84375 C 19.773438 -54.082031 19.492188 -52.4375 19.359375 -50.90625 C 19.234375 -49.050781 19.171875 -47.171875 19.171875 -45.265625 C 19.171875 -43.367188 19.203125 -41.488281 19.265625 -39.625 C 19.535156 -35.769531 20.101562 -31.976562 20.96875 -28.25 C 21.832031 -24.519531 22.929688 -20.859375 24.265625 -17.265625 C 24.992188 -16.734375 25.738281 -16.285156 26.5 -15.921875 C 27.269531 -15.554688 28.085938 -15.34375 28.953125 -15.28125 C 30.878906 -15.675781 32.539062 -16.472656 33.9375 -17.671875 C 34.738281 -18.796875 35.269531 -20.175781 35.53125 -21.8125 C 35.800781 -23.445312 35.96875 -25.0625 36.03125 -26.65625 C 36.101562 -28.25 36.171875 -29.613281 36.234375 -30.75 C 36.566406 -35.207031 36.734375 -39.664062 36.734375 -44.125 C 36.734375 -48.582031 36.703125 -53.039062 36.640625 -57.5 C 36.566406 -59.03125 37.226562 -60.191406 38.625 -60.984375 C 40.03125 -61.785156 41.363281 -61.820312 42.625 -61.09375 L 42.625 -62.09375 C 42.625 -62.625 42.820312 -63.101562 43.21875 -63.53125 C 43.625 -63.96875 44.09375 -64.15625 44.625 -64.09375 C 46.15625 -63.957031 47.269531 -63.390625 47.96875 -62.390625 C 48.664062 -61.390625 49.128906 -60.238281 49.359375 -58.9375 C 49.597656 -57.644531 49.75 -56.367188 49.8125 -55.109375 C 49.945312 -53.910156 50.078125 -52.710938 50.203125 -51.515625 C 50.335938 -50.316406 50.40625 -49.117188 50.40625 -47.921875 L 50.40625 -43.921875 C 50.613281 -39.796875 50.566406 -35.648438 50.265625 -31.484375 C 49.960938 -27.328125 49.25 -23.253906 48.125 -19.265625 Z M 18.96875 -54.40625 C 18.695312 -54.269531 18.5 -54.335938 18.375 -54.609375 C 18.300781 -54.140625 18.195312 -53.6875 18.0625 -53.25 C 17.9375 -52.820312 17.769531 -52.410156 17.5625 -52.015625 C 17.164062 -48.617188 16.984375 -45.222656 17.015625 -41.828125 C 17.054688 -38.429688 17.40625 -35.070312 18.0625 -31.75 C 18.195312 -31.082031 18.332031 -30.429688 18.46875 -29.796875 C 18.601562 -29.160156 18.738281 -28.546875 18.875 -27.953125 C 19 -27.953125 19.097656 -27.921875 19.171875 -27.859375 C 17.566406 -36.773438 17.5 -45.625 18.96875 -54.40625 Z M 18.96875 -54.40625 "/></g></g></g><g fill="#100a09" fill-opacity="1"><g transform="translate(184.21516, 204.035264)"><g><path d="M 57 -58.796875 C 56.863281 -58.398438 56.734375 -58.066406 56.609375 -57.796875 C 56.535156 -56.929688 56.363281 -56.066406 56.09375 -55.203125 C 55.832031 -54.335938 55.300781 -53.640625 54.5 -53.109375 C 54.164062 -52.835938 53.671875 -52.640625 53.015625 -52.515625 C 52.742188 -52.242188 52.507812 -52.109375 52.3125 -52.109375 C 49.78125 -51.640625 47.25 -51.171875 44.71875 -50.703125 C 42.1875 -50.242188 39.660156 -49.847656 37.140625 -49.515625 C 37.140625 -47.316406 37.117188 -45.117188 37.078125 -42.921875 C 37.046875 -40.722656 37.03125 -38.53125 37.03125 -36.34375 C 37.03125 -33.28125 37.046875 -30.234375 37.078125 -27.203125 C 37.117188 -24.171875 37.140625 -21.125 37.140625 -18.0625 C 37.203125 -16.332031 37.265625 -14.585938 37.328125 -12.828125 C 37.398438 -11.066406 37.46875 -9.320312 37.53125 -7.59375 C 37.46875 -6.394531 37.285156 -5.242188 36.984375 -4.140625 C 36.679688 -3.046875 36.066406 -2.128906 35.140625 -1.390625 L 35.140625 -1.59375 C 35.203125 -2.332031 35.234375 -3.050781 35.234375 -3.75 C 35.234375 -4.445312 35.269531 -5.128906 35.34375 -5.796875 L 35.34375 -9.578125 C 35.144531 -8.710938 34.976562 -7.648438 34.84375 -6.390625 C 34.707031 -5.128906 34.472656 -4 34.140625 -3 C 33.804688 -1.925781 33.109375 -1.125 32.046875 -0.59375 C 30.984375 -0.0625 29.914062 0.0664062 28.84375 -0.203125 C 26.78125 -0.867188 25.414062 -2.179688 24.75 -4.140625 C 24.09375 -6.109375 23.695312 -8.054688 23.5625 -9.984375 C 23.425781 -12.515625 23.375 -15.078125 23.40625 -17.671875 C 23.4375 -20.265625 23.488281 -22.828125 23.5625 -25.359375 C 23.695312 -27.890625 23.847656 -30.453125 24.015625 -33.046875 C 24.179688 -35.640625 24.296875 -38.234375 24.359375 -40.828125 L 24.5625 -45.21875 L 24.5625 -48.421875 C 23.894531 -48.421875 23.242188 -48.421875 22.609375 -48.421875 C 21.972656 -48.421875 21.328125 -48.421875 20.671875 -48.421875 C 17.941406 -48.421875 15.273438 -48.519531 12.671875 -48.71875 C 11.609375 -48.851562 10.5625 -49.035156 9.53125 -49.265625 C 8.5 -49.492188 7.519531 -49.875 6.59375 -50.40625 C 5.925781 -50.875 5.304688 -51.441406 4.734375 -52.109375 C 4.171875 -52.773438 3.722656 -53.507812 3.390625 -54.3125 C 2.390625 -54.84375 1.640625 -55.65625 1.140625 -56.75 C 0.648438 -57.851562 0.535156 -59.003906 0.796875 -60.203125 C 1.128906 -61.191406 1.742188 -62.085938 2.640625 -62.890625 C 3.546875 -63.691406 4.53125 -64.023438 5.59375 -63.890625 C 8.320312 -63.617188 11.050781 -63.398438 13.78125 -63.234375 C 16.507812 -63.066406 19.238281 -62.984375 21.96875 -62.984375 C 21.96875 -63.054688 21.984375 -63.109375 22.015625 -63.140625 C 22.046875 -63.171875 22.0625 -63.222656 22.0625 -63.296875 C 16.664062 -63.628906 11.273438 -64.226562 5.890625 -65.09375 C 5.753906 -65.09375 5.703125 -65.191406 5.734375 -65.390625 C 5.773438 -65.585938 5.859375 -65.65625 5.984375 -65.59375 C 12.972656 -65.1875 19.960938 -65.050781 26.953125 -65.1875 C 33.941406 -65.320312 40.894531 -65.6875 47.8125 -66.28125 C 48.34375 -66.414062 48.875 -66.5 49.40625 -66.53125 C 49.945312 -66.5625 50.445312 -66.613281 50.90625 -66.6875 C 51.175781 -66.6875 51.457031 -66.703125 51.75 -66.734375 C 52.050781 -66.765625 52.335938 -66.75 52.609375 -66.6875 C 53.335938 -66.820312 54.082031 -66.921875 54.84375 -66.984375 C 55.613281 -67.046875 56.367188 -67.113281 57.109375 -67.1875 C 57.566406 -67.25 57.84375 -67 57.9375 -66.4375 C 58.039062 -65.875 57.828125 -65.523438 57.296875 -65.390625 C 56.960938 -65.390625 56.734375 -65.351562 56.609375 -65.28125 C 56.867188 -65.15625 57.066406 -65.023438 57.203125 -64.890625 C 58.335938 -64.222656 58.882812 -63.171875 58.84375 -61.734375 C 58.8125 -60.304688 58.195312 -59.328125 57 -58.796875 Z M 12.671875 -51.109375 C 14.410156 -50.972656 16.175781 -50.972656 17.96875 -51.109375 C 15.96875 -51.304688 13.96875 -51.585938 11.96875 -51.953125 C 9.976562 -52.328125 8.019531 -52.8125 6.09375 -53.40625 C 6.882812 -52.675781 7.878906 -52.128906 9.078125 -51.765625 C 10.273438 -51.398438 11.472656 -51.179688 12.671875 -51.109375 Z M 12.671875 -51.109375 "/></g></g></g><g fill="#100a09" fill-opacity="1"><g transform="translate(237.819901, 204.035264)"><g><path d="M 51.015625 -31.34375 L 51.015625 -31.046875 C 50.878906 -29.847656 50.328125 -28.929688 49.359375 -28.296875 C 48.398438 -27.671875 47.351562 -27.421875 46.21875 -27.546875 C 46.15625 -25.085938 46.039062 -22.625 45.875 -20.15625 C 45.707031 -17.695312 45.554688 -15.238281 45.421875 -12.78125 C 45.359375 -11.507812 45.257812 -10.273438 45.125 -9.078125 C 44.988281 -7.878906 44.851562 -6.679688 44.71875 -5.484375 C 44.582031 -4.421875 44.347656 -3.171875 44.015625 -1.734375 C 43.691406 -0.304688 42.992188 0.703125 41.921875 1.296875 C 41.921875 1.359375 41.890625 1.390625 41.828125 1.390625 C 41.554688 1.796875 41.125 2.164062 40.53125 2.5 C 39.664062 3.03125 38.800781 3.175781 37.9375 2.9375 C 37.070312 2.707031 36.375 2.257812 35.84375 1.59375 C 35.375 1.0625 35.070312 0.429688 34.9375 -0.296875 C 34.800781 -1.023438 34.703125 -1.722656 34.640625 -2.390625 C 34.304688 -6.316406 34.109375 -10.175781 34.046875 -13.96875 C 33.835938 -17.769531 33.734375 -21.597656 33.734375 -25.453125 L 33.734375 -29.15625 C 33.410156 -29.15625 33.082031 -29.15625 32.75 -29.15625 C 32.414062 -29.15625 32.082031 -29.15625 31.75 -29.15625 C 27.882812 -29.15625 24.054688 -29.050781 20.265625 -28.84375 C 20.328125 -27.382812 20.375 -25.9375 20.40625 -24.5 C 20.445312 -23.070312 20.46875 -21.628906 20.46875 -20.171875 C 20.46875 -18.503906 20.46875 -16.835938 20.46875 -15.171875 C 20.46875 -13.503906 20.300781 -11.875 19.96875 -10.28125 L 19.96875 -9.984375 C 19.894531 -9.585938 19.859375 -9.171875 19.859375 -8.734375 C 19.859375 -8.304688 19.828125 -7.890625 19.765625 -7.484375 C 19.703125 -6.617188 19.550781 -5.6875 19.3125 -4.6875 C 19.082031 -3.6875 18.664062 -2.859375 18.0625 -2.203125 C 16.800781 -0.929688 15.367188 -0.257812 13.765625 -0.1875 C 12.171875 -0.125 10.910156 -0.960938 9.984375 -2.703125 C 9.847656 -2.960938 9.726562 -3.207031 9.625 -3.4375 C 9.53125 -3.675781 9.414062 -3.925781 9.28125 -4.1875 C 9.019531 -4.1875 8.738281 -4.285156 8.4375 -4.484375 C 8.132812 -4.691406 7.984375 -4.960938 7.984375 -5.296875 C 7.722656 -9.015625 7.523438 -12.738281 7.390625 -16.46875 C 7.253906 -20.195312 7.117188 -23.890625 6.984375 -27.546875 L 5.984375 -27.15625 C 4.859375 -26.6875 3.796875 -26.734375 2.796875 -27.296875 C 1.796875 -27.867188 1.128906 -28.71875 0.796875 -29.84375 C 0.460938 -30.976562 0.695312 -32.078125 1.5 -33.140625 C 1.894531 -33.671875 2.425781 -34.238281 3.09375 -34.84375 C 3.488281 -35.507812 4.003906 -36.039062 4.640625 -36.4375 C 5.273438 -36.832031 5.957031 -37.164062 6.6875 -37.4375 C 6.625 -39.4375 6.570312 -41.445312 6.53125 -43.46875 C 6.5 -45.5 6.421875 -47.546875 6.296875 -49.609375 C 6.222656 -51.941406 6.132812 -54.304688 6.03125 -56.703125 C 5.9375 -59.097656 5.921875 -61.460938 5.984375 -63.796875 C 5.984375 -63.921875 6.035156 -63.984375 6.140625 -63.984375 C 6.242188 -63.984375 6.296875 -63.921875 6.296875 -63.796875 C 6.828125 -61.398438 7.191406 -58.96875 7.390625 -56.5 C 7.585938 -54.039062 7.820312 -51.578125 8.09375 -49.109375 C 8.289062 -47.242188 8.488281 -45.363281 8.6875 -43.46875 C 8.882812 -41.570312 9.050781 -39.691406 9.1875 -37.828125 C 9.382812 -38.035156 9.484375 -38.140625 9.484375 -38.140625 L 9.6875 -38.140625 C 9.613281 -41.992188 9.507812 -45.847656 9.375 -49.703125 C 9.25 -53.566406 8.921875 -57.394531 8.390625 -61.1875 C 8.253906 -62.320312 8.550781 -63.351562 9.28125 -64.28125 C 10.007812 -65.21875 10.910156 -65.753906 11.984375 -65.890625 C 13.046875 -66.023438 14.078125 -65.738281 15.078125 -65.03125 C 16.078125 -64.332031 16.609375 -63.421875 16.671875 -62.296875 L 16.671875 -62.09375 C 17.003906 -62.09375 17.367188 -61.992188 17.765625 -61.796875 C 18.296875 -61.597656 18.660156 -61.128906 18.859375 -60.390625 C 19.066406 -59.660156 19.203125 -59.0625 19.265625 -58.59375 L 19.5625 -53.8125 C 19.695312 -51.539062 19.847656 -49.257812 20.015625 -46.96875 C 20.179688 -44.675781 20.332031 -42.394531 20.46875 -40.125 L 20.671875 -40.125 C 22.398438 -40.394531 24.144531 -40.613281 25.90625 -40.78125 C 27.664062 -40.945312 29.410156 -41.097656 31.140625 -41.234375 C 31.671875 -41.296875 32.203125 -41.359375 32.734375 -41.421875 C 33.273438 -41.492188 33.8125 -41.5625 34.34375 -41.625 C 34.269531 -43.6875 34.164062 -45.75 34.03125 -47.8125 C 33.90625 -49.875 33.773438 -51.9375 33.640625 -54 C 33.378906 -55.738281 33.265625 -57.519531 33.296875 -59.34375 C 33.328125 -61.175781 34.175781 -62.660156 35.84375 -63.796875 C 37.375 -64.785156 39.035156 -65.210938 40.828125 -65.078125 C 42.628906 -64.953125 44.023438 -64.023438 45.015625 -62.296875 C 45.953125 -60.765625 46.453125 -58.984375 46.515625 -56.953125 C 46.585938 -54.921875 46.65625 -53.039062 46.71875 -51.3125 C 46.78125 -51.175781 46.796875 -51.023438 46.765625 -50.859375 C 46.734375 -50.691406 46.71875 -50.539062 46.71875 -50.40625 C 46.851562 -48.082031 46.851562 -45.722656 46.71875 -43.328125 L 46.71875 -41.125 C 47.113281 -41.0625 47.507812 -40.976562 47.90625 -40.875 C 48.3125 -40.78125 48.75 -40.664062 49.21875 -40.53125 C 50.550781 -40.132812 51.484375 -39.367188 52.015625 -38.234375 C 52.546875 -37.097656 52.726562 -35.898438 52.5625 -34.640625 C 52.394531 -33.378906 51.878906 -32.28125 51.015625 -31.34375 Z M 23.859375 -31.84375 C 23.328125 -31.84375 22.773438 -31.828125 22.203125 -31.796875 C 21.640625 -31.765625 21.09375 -31.75 20.5625 -31.75 C 20.425781 -31.476562 20.296875 -31.3125 20.171875 -31.25 L 20.171875 -30.84375 C 24.097656 -31.25 27.957031 -31.453125 31.75 -31.453125 C 32.082031 -31.378906 32.429688 -31.34375 32.796875 -31.34375 C 33.160156 -31.34375 33.472656 -31.34375 33.734375 -31.34375 L 33.734375 -31.84375 C 32.078125 -31.90625 30.429688 -31.953125 28.796875 -31.984375 C 27.171875 -32.023438 25.523438 -31.976562 23.859375 -31.84375 Z M 23.859375 -31.84375 "/></g></g></g><path stroke-linecap="butt" transform="matrix(0.966818, 0, 0, 0.966818, 35.353413, 96.763762)" fill="none" stroke-linejoin="miter" d="M 88.35168 99.898699 C 87.947649 99.765368 87.487053 99.042152 86.965853 97.73309 C 86.444652 96.419988 85.891129 94.807903 85.301243 92.892794 C 84.715397 90.957483 84.157834 88.957528 83.636633 86.888887 C 83.135634 84.824286 82.670998 82.965741 82.250806 81.321333 C 81.846774 79.672885 81.580113 78.460791 81.442743 77.689091 L 73.378275 77.814341 C 72.622737 80.909221 71.964165 83.983901 71.410642 87.042419 C 70.87328 90.100937 70.461168 93.220059 70.174306 96.395746 C 70.174306 97.017955 69.883403 97.329059 69.293518 97.329059 C 68.723833 97.329059 68.469293 97.017955 68.537979 96.395746 C 68.804639 93.300865 69.20059 90.193864 69.721791 87.06666 C 70.242991 83.923296 70.982369 80.840536 71.939923 77.814341 L 71.006611 77.814341 C 70.671265 79.042596 70.327838 80.537512 69.97229 82.30313 C 69.636944 84.048546 69.309679 85.77376 68.990494 87.470692 C 68.68747 89.151463 68.42889 90.561532 68.210713 91.704941 C 68.008698 92.832189 67.90769 93.393793 67.90769 93.393793 L 67.301643 98.032074 C 67.083466 100.387577 66.283483 102.076428 64.905736 103.102668 C 63.527989 104.141029 62.016911 104.553141 60.368463 104.334964 C 58.724055 104.132948 57.326106 103.345087 56.182697 101.96734 C 55.05949 100.589593 54.663539 98.698725 54.998885 96.294738 C 55.419078 93.268543 55.899875 90.242348 56.437237 87.220192 C 56.99076 84.177836 57.645291 81.175882 58.40083 78.218372 C 57.932154 78.287057 57.451356 78.335541 56.966518 78.367864 C 56.47764 78.404226 56.033206 78.420388 55.629174 78.420388 C 55.762505 78.085042 55.798868 77.773937 55.730182 77.487075 C 54.065573 77.083044 52.857519 76.194175 52.10198 74.816427 C 51.342401 73.43868 51.132305 71.907401 51.471691 70.22663 C 51.823198 68.529698 52.788833 66.974177 54.368596 65.564107 C 55.96452 64.149997 58.311943 63.208604 61.402784 62.739928 C 62.158322 59.29354 62.982547 55.899676 63.871416 52.554295 C 64.780486 49.208915 65.883492 45.956462 67.176393 42.796936 C 67.798601 41.419189 68.485455 39.924273 69.245034 38.312187 C 70.000573 36.696061 70.950046 35.285992 72.093455 34.077938 C 73.232824 32.865843 74.663095 32.259796 76.376189 32.259796 C 77.269098 32.195151 78.157967 32.43757 79.050877 32.991093 C 79.955907 33.544616 80.614478 34.23551 81.014469 35.059734 C 82.529587 35.124379 83.782085 35.665781 84.771962 36.67182 C 85.78204 37.665737 86.351725 38.982879 86.485055 40.631328 C 86.638587 42.695928 86.816361 44.78073 87.014336 46.881694 C 87.216352 48.982657 87.418368 51.035137 87.620383 53.035093 C 87.70523 53.099738 87.781996 53.136101 87.846641 53.136101 C 87.915326 51.338161 88.000173 49.564463 88.101181 47.815007 C 88.202189 46.049389 88.35168 44.312054 88.553696 42.59492 C 88.553696 42.312098 88.60622 42.934307 88.703188 44.461546 C 88.824397 45.976663 88.949647 47.916014 89.082977 50.287679 C 89.216308 52.655303 89.353678 55.035048 89.487009 57.418834 C 89.620339 59.790498 89.798113 61.766212 90.01629 63.345975 C 92.000084 63.547991 93.543484 64.218683 94.654571 65.362092 C 95.765657 66.505501 96.452511 67.814563 96.723212 69.293318 C 96.989872 70.772073 96.848461 72.234666 96.294938 73.681099 C 95.753536 75.127532 94.763659 76.295182 93.317227 77.184052 C 94.00812 80.210247 94.731337 83.640474 95.486875 87.470692 C 96.242414 91.284749 96.82422 94.739217 97.224211 97.830058 C 97.511073 100.1694 97.325219 101.943098 96.670688 103.151152 C 96.016157 104.363246 95.151529 105.033938 94.076806 105.167269 C 93.014203 105.300599 91.94756 104.92485 90.872836 104.03194 C 89.814274 103.143071 88.973889 101.765324 88.35168 99.898699 Z M 73.075252 64.380295 C 73.830791 64.242925 74.804506 64.158078 76.000439 64.125756 C 77.208493 64.093433 78.157967 64.040909 78.848861 63.976264 C 78.715531 63.067193 78.561999 61.790454 78.392305 60.142006 C 78.226653 58.497598 78.016556 56.73198 77.766057 54.849194 C 77.527678 52.950246 77.232735 51.20079 76.881228 49.604866 C 76.057004 52.497731 75.333787 55.083532 74.715619 57.37035 C 74.109572 59.636966 73.56413 61.976308 73.075252 64.380295 Z M 144.310034 83.058669 C 143.554495 85.612147 142.552497 88.100981 141.312121 90.521129 C 140.083865 92.925116 138.47178 95.017999 136.471824 96.799778 C 136.269809 96.933108 136.023349 97.143204 135.740527 97.430067 C 135.267811 97.898743 134.61328 98.50479 133.772894 99.244168 C 132.94867 99.967384 132.092123 100.528988 131.203254 100.933019 C 128.863912 102.444097 126.318514 103.118829 123.56302 102.949136 C 120.807526 102.783483 118.1692 102.023904 115.648044 100.68252 C 113.143049 99.337095 111.034005 97.664405 109.320912 95.664449 C 107.587617 93.664494 106.141184 91.4302 104.981614 88.957528 C 104.359406 89.026213 103.741238 88.909044 103.119029 88.60602 C 102.496821 88.286835 102.016023 87.749474 101.680677 86.989894 C 99.127199 80.590037 97.688847 73.899276 97.369662 66.925693 C 97.066638 59.931909 97.672686 53.091657 99.183763 46.404937 C 99.603956 44.687803 100.242325 42.958549 101.098872 41.209093 C 101.959459 39.447515 103.090747 38.033405 104.504857 36.974843 C 105.914927 35.900119 107.656302 35.536491 109.720903 35.892039 C 110.96532 36.025369 112.084487 36.485965 113.074364 37.277867 C 114.084442 38.065728 114.82382 39.051565 115.292496 40.227296 C 115.85006 41.738374 115.898544 43.411064 115.446028 45.245367 C 115.009674 47.059468 114.722812 48.7564 114.589482 50.336163 C 114.43595 52.267433 114.363224 54.218905 114.363224 56.186538 C 114.363224 58.133969 114.403627 60.077361 114.488474 62.008631 C 114.755135 65.992381 115.33694 69.915526 116.225809 73.782107 C 117.118719 77.628486 118.250007 81.41022 119.631794 85.12731 C 120.387333 85.680833 121.159033 86.149509 121.950934 86.537379 C 122.754957 86.909088 123.603423 87.127265 124.496333 87.19191 C 126.496288 86.791919 128.217462 85.967695 129.663895 84.723278 C 130.488119 83.547547 131.033561 82.117275 131.304262 80.436505 C 131.587084 78.755734 131.764858 77.091124 131.833543 75.446716 C 131.898188 73.782107 131.966874 72.359916 132.031519 71.184185 C 132.370905 66.578226 132.536558 61.976308 132.536558 57.37035 C 132.536558 52.74823 132.504236 48.134191 132.43555 43.528233 C 132.370905 41.94847 133.057759 40.748497 134.504191 39.924273 C 135.950624 39.083887 137.328371 39.043484 138.637433 39.799023 L 138.637433 38.764702 C 138.637433 38.227341 138.839448 37.730382 139.24348 37.277867 C 139.663673 36.825351 140.152551 36.631416 140.706074 36.696061 C 142.285837 36.849593 143.437326 37.435439 144.160542 38.461679 C 144.883759 39.487919 145.360516 40.671731 145.594854 42.017155 C 145.849394 43.36258 146.006966 44.687803 146.075651 46.000905 C 146.208982 47.245322 146.342312 48.485699 146.479683 49.730116 C 146.613013 50.958371 146.681699 52.194707 146.681699 53.439124 L 146.681699 57.572366 C 146.899876 61.838938 146.847352 66.125711 146.528167 70.428646 C 146.225143 74.731581 145.485766 78.941588 144.310034 83.058669 Z M 114.161208 46.732202 C 113.890507 46.865533 113.688492 46.788767 113.555161 46.505945 C 113.486476 46.990782 113.377387 47.463499 113.227896 47.916014 C 113.090525 48.352368 112.924872 48.780642 112.722856 49.200834 C 112.302664 52.715908 112.108729 56.226941 112.141051 59.737974 C 112.177414 63.253048 112.537002 66.723678 113.227896 70.149864 C 113.377387 70.840758 113.522839 71.51145 113.656169 72.170021 C 113.789499 72.824552 113.92283 73.462922 114.060201 74.08513 C 114.193531 74.08513 114.294539 74.117453 114.363224 74.186138 C 112.714776 64.95806 112.646091 55.806748 114.161208 46.732202 Z M 201.730982 42.166647 C 201.593611 42.58684 201.4522 42.934307 201.302708 43.200968 C 201.234023 44.110038 201.06433 45.006988 200.797669 45.899898 C 200.526968 46.788767 199.973445 47.511983 199.13306 48.065506 C 198.797713 48.336207 198.284594 48.546303 197.5937 48.695795 C 197.327039 48.966496 197.08058 49.099826 196.862403 49.099826 C 194.26044 49.588705 191.646357 50.077583 189.024193 50.56242 C 186.402029 51.035137 183.787946 51.439168 181.181943 51.774515 C 181.181943 54.057292 181.165782 56.336029 181.133459 58.606686 C 181.101137 60.873302 181.080935 63.143959 181.080935 65.410576 C 181.080935 68.570101 181.101137 71.721547 181.133459 74.864911 C 181.165782 77.992114 181.181943 81.14356 181.181943 84.319247 C 181.250628 86.101025 181.319314 87.907046 181.383959 89.741349 C 181.452644 91.55545 181.521329 93.36147 181.585974 95.15941 C 181.521329 96.387666 181.327394 97.571478 181.008209 98.714887 C 180.705186 99.858296 180.074897 100.80777 179.117342 101.563308 L 179.117342 101.337051 C 179.181987 100.581512 179.21835 99.842134 179.21835 99.118918 C 179.21835 98.395702 179.250673 97.688647 179.319358 97.001793 L 179.319358 93.090769 C 179.117342 93.983679 178.939568 95.082644 178.790077 96.395746 C 178.652706 97.704808 178.418368 98.872459 178.083022 99.898699 C 177.727474 101.009785 177.000218 101.84209 175.889131 102.395613 C 174.798246 102.932975 173.703321 103.066305 172.612436 102.799645 C 170.47915 102.108751 169.06504 100.747165 168.378187 98.714887 C 167.687293 96.682609 167.275181 94.662451 167.14185 92.662496 C 166.988319 90.060533 166.931754 87.410087 166.964077 84.723278 C 167.016601 82.032429 167.073165 79.386023 167.14185 76.78002 C 167.275181 74.157856 167.428713 71.50337 167.594366 68.816561 C 167.764059 66.125711 167.881228 63.446983 167.949913 60.772295 L 168.176171 56.235022 L 168.176171 52.905803 C 167.485277 52.905803 166.814585 52.905803 166.160054 52.905803 C 165.501483 52.905803 164.830791 52.905803 164.139897 52.905803 C 161.319758 52.905803 158.560223 52.808835 155.873414 52.606819 C 154.778489 52.469449 153.695684 52.287634 152.620961 52.049256 C 151.562398 51.798756 150.544239 51.402806 149.570523 50.865444 C 148.87963 50.376566 148.24126 49.79072 147.655414 49.099826 C 147.08169 48.412973 146.621094 47.657434 146.265546 46.83321 C 145.243347 46.275647 144.467606 45.435261 143.946406 44.312054 C 143.425205 43.168645 143.308036 41.976752 143.594898 40.732335 C 143.930245 39.706096 144.560534 38.780864 145.485766 37.956639 C 146.427159 37.116254 147.445318 36.772827 148.536203 36.926359 C 151.360383 37.19302 154.184562 37.411197 157.008742 37.58089 C 159.828882 37.746543 162.653061 37.83139 165.477241 37.83139 C 165.477241 37.766745 165.493402 37.714221 165.529765 37.681898 C 165.562088 37.645535 165.578249 37.597052 165.578249 37.528366 C 159.998575 37.19302 154.426981 36.570812 148.863468 35.665781 C 148.713977 35.665781 148.653372 35.564773 148.685695 35.362758 C 148.738219 35.160742 148.831146 35.092057 148.964476 35.160742 C 156.192599 35.580935 163.416681 35.722346 170.644803 35.589015 C 177.872925 35.435483 185.064685 35.051653 192.224122 34.429445 C 192.781685 34.296115 193.327128 34.211268 193.86449 34.174905 C 194.418013 34.142583 194.939213 34.094099 195.428091 34.025414 C 195.694752 34.025414 195.981614 34.009252 196.284638 33.97693 C 196.603823 33.940567 196.906846 33.956728 197.189668 34.025414 C 197.949247 33.892083 198.720947 33.791075 199.512849 33.72239 C 200.30071 33.637543 201.07241 33.564818 201.83199 33.496132 C 202.316827 33.427447 202.61177 33.690068 202.712778 34.275913 C 202.813786 34.865799 202.587528 35.225387 202.029965 35.362758 C 201.694619 35.362758 201.4522 35.39508 201.302708 35.463766 C 201.58553 35.597096 201.795627 35.738507 201.932997 35.892039 C 203.108729 36.578892 203.678413 37.665737 203.646091 39.144492 C 203.609728 40.623247 202.971358 41.629285 201.730982 42.166647 Z M 155.873414 50.134147 C 157.671354 50.267477 159.493535 50.267477 161.343999 50.134147 C 159.275358 49.932131 157.206717 49.649309 155.142117 49.2776 C 153.089637 48.88973 151.06544 48.388731 149.065484 47.766523 C 149.889708 48.522062 150.915948 49.091746 152.140163 49.479616 C 153.38458 49.847285 154.628997 50.069502 155.873414 50.134147 Z M 250.970293 70.578138 L 250.970293 70.881161 C 250.836962 72.125578 250.267278 73.075052 249.257199 73.729583 C 248.267322 74.388154 247.180478 74.646734 246.004746 74.513404 C 245.940101 77.050721 245.822932 79.596119 245.653239 82.149598 C 245.483546 84.690956 245.334054 87.236354 245.200724 89.789832 C 245.132038 91.098894 245.02295 92.379674 244.869418 93.62005 C 244.736088 94.848306 244.602757 96.084642 244.469427 97.329059 C 244.332056 98.419944 244.089637 99.704764 243.73813 101.183519 C 243.398744 102.662274 242.679568 103.712756 241.568481 104.334964 C 241.568481 104.403649 241.536159 104.435972 241.467473 104.435972 C 241.200813 104.856165 240.752338 105.235954 240.130129 105.5713 C 239.24126 106.124823 238.34027 106.278355 237.43524 106.023815 C 236.54233 105.789477 235.819114 105.336962 235.265591 104.662229 C 234.796914 104.108706 234.48581 103.454175 234.332278 102.698637 C 234.198948 101.943098 234.09794 101.219882 234.029255 100.528988 C 233.693908 96.460391 233.491893 92.472601 233.427248 88.553496 C 233.209071 84.62227 233.099982 80.662762 233.099982 76.679012 L 233.099982 72.848794 C 232.760596 72.848794 232.417169 72.848794 232.065662 72.848794 C 231.730316 72.848794 231.390929 72.848794 231.055583 72.848794 C 227.055672 72.848794 223.088083 72.949802 219.156857 73.151818 C 219.241704 74.662895 219.298268 76.157812 219.334631 77.640607 C 219.366954 79.119362 219.383115 80.622359 219.383115 82.149598 C 219.383115 83.866731 219.383115 85.587905 219.383115 87.3212 C 219.383115 89.034294 219.209382 90.715064 218.853834 92.359472 L 218.853834 92.662496 C 218.789189 93.082689 218.752826 93.519042 218.752826 93.975598 C 218.752826 94.411952 218.720503 94.840225 218.651818 95.260418 C 218.587173 96.149287 218.425561 97.118963 218.175061 98.161364 C 217.936683 99.183563 217.508409 100.04011 216.890241 100.731004 C 215.5933 102.040065 214.114545 102.730959 212.449936 102.799645 C 210.805528 102.86429 209.500506 101.999662 208.542952 100.201722 C 208.39346 99.931021 208.26821 99.680522 208.167202 99.446184 C 208.066195 99.191644 207.949025 98.933064 207.811655 98.662363 C 207.544994 98.662363 207.250051 98.561355 206.930866 98.363379 C 206.627843 98.141162 206.478351 97.866421 206.478351 97.531075 C 206.191489 93.680655 205.981392 89.830235 205.848062 85.983856 C 205.710691 82.117275 205.577361 78.295138 205.444031 74.513404 L 204.40971 74.917435 C 203.233979 75.402273 202.122892 75.353789 201.080491 74.763903 C 200.058292 74.178058 199.367398 73.301309 199.01589 72.141739 C 198.676504 70.966008 198.922963 69.822599 199.747187 68.715553 C 200.16738 68.157989 200.720903 67.572144 201.407757 66.949935 C 201.827949 66.279243 202.35723 65.72976 202.9956 65.309568 C 203.654171 64.889375 204.357186 64.545948 205.116765 64.279287 C 205.04808 62.210647 204.999596 60.125844 204.963233 58.024881 C 204.930911 55.923917 204.846064 53.806793 204.712734 51.673507 C 204.644048 49.26952 204.559202 46.83321 204.458194 44.360538 C 204.357186 41.875744 204.341025 39.427314 204.40971 37.027367 C 204.40971 36.873835 204.458194 36.797069 204.559202 36.797069 C 204.66021 36.797069 204.712734 36.873835 204.712734 37.027367 C 205.266257 39.495999 205.646046 42.009075 205.848062 44.562553 C 206.046037 47.099871 206.292497 49.649309 206.579359 52.202788 C 206.777334 54.117897 206.97935 56.057248 207.181366 58.024881 C 207.399543 59.992514 207.577317 61.939945 207.710647 63.875256 C 207.912663 63.657079 208.01367 63.547991 208.01367 63.547991 L 208.215686 63.547991 C 208.147001 59.564241 208.045993 55.580491 207.912663 51.596741 C 207.779332 47.59683 207.435906 43.629241 206.878342 39.698015 C 206.745012 38.538445 207.056116 37.479882 207.811655 36.522328 C 208.567194 35.544572 209.500506 34.991049 210.611593 34.857718 C 211.702477 34.708227 212.76104 34.991049 213.78728 35.714265 C 214.829681 36.437481 215.383204 37.386955 215.451889 38.562687 L 215.451889 38.764702 C 215.803397 38.764702 216.183186 38.873791 216.587218 39.091968 C 217.140741 39.293984 217.52053 39.774781 217.718506 40.53032 C 217.920521 41.285859 218.065973 41.908067 218.146779 42.396945 L 218.449802 47.338249 C 218.587173 49.689712 218.736665 52.049256 218.906358 54.42092 C 219.072011 56.788545 219.233623 59.144048 219.383115 61.47935 L 219.585131 61.47935 C 221.366909 61.208649 223.164849 60.990472 224.97895 60.824819 C 226.813253 60.655126 228.627354 60.497553 230.425294 60.344021 C 230.978817 60.279376 231.5283 60.210691 232.065662 60.142006 C 232.619185 60.077361 233.172708 60.008675 233.730271 59.93999 C 233.661586 57.806704 233.560578 55.673418 233.427248 53.536092 C 233.289877 51.402806 233.148466 49.26952 232.998974 47.136234 C 232.728273 45.354455 232.611104 43.512072 232.643427 41.613124 C 232.67979 39.714176 233.552497 38.186937 235.265591 37.027367 C 236.861515 35.984966 238.586729 35.536491 240.433153 35.690023 C 242.299778 35.823354 243.746211 36.780908 244.77245 38.562687 C 245.746166 40.14245 246.267367 41.984833 246.332012 44.085796 C 246.400697 46.18676 246.469382 48.134191 246.534027 49.932131 C 246.602713 50.069502 246.618874 50.218994 246.586552 50.388687 C 246.550189 50.55434 246.534027 50.715952 246.534027 50.865444 C 246.671398 53.269431 246.671398 55.70574 246.534027 58.178413 L 246.534027 60.445029 C 246.95422 60.529876 247.366332 60.622803 247.770364 60.723811 C 248.190556 60.824819 248.634991 60.941988 249.107708 61.075318 C 250.485455 61.495511 251.45109 62.295493 252.004613 63.471225 C 252.562177 64.630795 252.743991 65.867131 252.562177 67.176193 C 252.392483 68.489295 251.863202 69.620583 250.970293 70.578138 Z M 222.890108 70.048856 C 222.332545 70.048856 221.76286 70.069058 221.172974 70.10138 C 220.60329 70.133703 220.037646 70.149864 219.484123 70.149864 C 219.350793 70.436727 219.209382 70.6145 219.05585 70.679145 L 219.05585 71.083177 C 223.124446 70.679145 227.124357 70.47713 231.055583 70.47713 C 231.390929 70.545815 231.746477 70.578138 232.114146 70.578138 C 232.502016 70.578138 232.829281 70.578138 233.099982 70.578138 L 233.099982 70.048856 C 231.382849 69.984211 229.677836 69.931687 227.980904 69.899365 C 226.300133 69.867042 224.603201 69.915526 222.890108 70.048856 Z M 222.890108 70.048856 " stroke="#303030" stroke-width="8.26144" stroke-opacity="1" stroke-miterlimit="4"/><g fill="#b2d12e" fill-opacity="1"><g transform="translate(84.238165, 196.346051)"><g><path d="M 36.53125 -3 C 36.132812 -3.125 35.6875 -3.816406 35.1875 -5.078125 C 34.6875 -6.347656 34.15625 -7.914062 33.59375 -9.78125 C 33.03125 -11.644531 32.5 -13.570312 32 -15.5625 C 31.5 -17.5625 31.046875 -19.359375 30.640625 -20.953125 C 30.242188 -22.554688 29.976562 -23.722656 29.84375 -24.453125 L 22.0625 -24.359375 C 21.332031 -21.359375 20.695312 -18.378906 20.15625 -15.421875 C 19.625 -12.460938 19.226562 -9.453125 18.96875 -6.390625 C 18.96875 -5.785156 18.679688 -5.484375 18.109375 -5.484375 C 17.546875 -5.484375 17.300781 -5.785156 17.375 -6.390625 C 17.632812 -9.378906 18.015625 -12.390625 18.515625 -15.421875 C 19.015625 -18.453125 19.734375 -21.429688 20.671875 -24.359375 L 19.765625 -24.359375 C 19.429688 -23.160156 19.097656 -21.710938 18.765625 -20.015625 C 18.429688 -18.316406 18.113281 -16.648438 17.8125 -15.015625 C 17.519531 -13.390625 17.269531 -12.023438 17.0625 -10.921875 C 16.863281 -9.828125 16.765625 -9.28125 16.765625 -9.28125 L 16.171875 -4.796875 C 15.972656 -2.523438 15.207031 -0.894531 13.875 0.09375 C 12.539062 1.09375 11.078125 1.492188 9.484375 1.296875 C 7.890625 1.097656 6.539062 0.332031 5.4375 -1 C 4.34375 -2.332031 3.960938 -4.160156 4.296875 -6.484375 C 4.691406 -9.410156 5.15625 -12.335938 5.6875 -15.265625 C 6.21875 -18.203125 6.851562 -21.097656 7.59375 -23.953125 C 7.125 -23.890625 6.65625 -23.84375 6.1875 -23.8125 C 5.71875 -23.78125 5.285156 -23.765625 4.890625 -23.765625 C 5.023438 -24.097656 5.054688 -24.394531 4.984375 -24.65625 C 3.390625 -25.050781 2.226562 -25.914062 1.5 -27.25 C 0.769531 -28.582031 0.566406 -30.0625 0.890625 -31.6875 C 1.222656 -33.320312 2.15625 -34.820312 3.6875 -36.1875 C 5.21875 -37.550781 7.484375 -38.46875 10.484375 -38.9375 C 11.210938 -42.257812 12.007812 -45.535156 12.875 -48.765625 C 13.738281 -51.992188 14.804688 -55.140625 16.078125 -58.203125 C 16.671875 -59.535156 17.332031 -60.984375 18.0625 -62.546875 C 18.800781 -64.109375 19.71875 -65.46875 20.8125 -66.625 C 21.914062 -67.789062 23.296875 -68.375 24.953125 -68.375 C 25.816406 -68.445312 26.679688 -68.21875 27.546875 -67.6875 C 28.410156 -67.15625 29.046875 -66.488281 29.453125 -65.6875 C 30.910156 -65.625 32.125 -65.109375 33.09375 -64.140625 C 34.0625 -63.171875 34.609375 -61.890625 34.734375 -60.296875 C 34.867188 -58.296875 35.035156 -56.28125 35.234375 -54.25 C 35.429688 -52.226562 35.632812 -50.25 35.84375 -48.3125 C 35.90625 -48.25 35.96875 -48.21875 36.03125 -48.21875 C 36.101562 -49.945312 36.1875 -51.660156 36.28125 -53.359375 C 36.382812 -55.054688 36.535156 -56.738281 36.734375 -58.40625 C 36.734375 -58.664062 36.78125 -58.0625 36.875 -56.59375 C 36.976562 -55.132812 37.097656 -53.253906 37.234375 -50.953125 C 37.367188 -48.660156 37.5 -46.363281 37.625 -44.0625 C 37.757812 -41.769531 37.929688 -39.859375 38.140625 -38.328125 C 40.066406 -38.128906 41.5625 -37.476562 42.625 -36.375 C 43.6875 -35.28125 44.347656 -34.019531 44.609375 -32.59375 C 44.878906 -31.164062 44.75 -29.75 44.21875 -28.34375 C 43.6875 -26.945312 42.722656 -25.816406 41.328125 -24.953125 C 41.992188 -22.023438 42.691406 -18.710938 43.421875 -15.015625 C 44.148438 -11.328125 44.71875 -7.984375 45.125 -4.984375 C 45.382812 -2.722656 45.195312 -1.015625 44.5625 0.140625 C 43.9375 1.304688 43.109375 1.957031 42.078125 2.09375 C 41.046875 2.226562 40.015625 1.863281 38.984375 1 C 37.953125 0.132812 37.132812 -1.195312 36.53125 -3 Z M 21.765625 -37.328125 C 22.492188 -37.460938 23.441406 -37.546875 24.609375 -37.578125 C 25.773438 -37.617188 26.691406 -37.671875 27.359375 -37.734375 C 27.222656 -38.597656 27.070312 -39.828125 26.90625 -41.421875 C 26.738281 -43.023438 26.535156 -44.738281 26.296875 -46.5625 C 26.066406 -48.394531 25.785156 -50.078125 25.453125 -51.609375 C 24.660156 -48.816406 23.960938 -46.320312 23.359375 -44.125 C 22.765625 -41.925781 22.234375 -39.660156 21.765625 -37.328125 Z M 21.765625 -37.328125 "/></g></g></g><g fill="#b2d12e" fill-opacity="1"><g transform="translate(126.762442, 196.346051)"><g><path d="M 48.125 -19.265625 C 47.382812 -16.804688 46.414062 -14.410156 45.21875 -12.078125 C 44.019531 -9.742188 42.457031 -7.710938 40.53125 -5.984375 C 40.332031 -5.859375 40.097656 -5.660156 39.828125 -5.390625 C 39.359375 -4.921875 38.722656 -4.335938 37.921875 -3.640625 C 37.128906 -2.941406 36.300781 -2.394531 35.4375 -2 C 33.175781 -0.53125 30.710938 0.117188 28.046875 -0.046875 C 25.390625 -0.210938 22.84375 -0.941406 20.40625 -2.234375 C 17.976562 -3.535156 15.9375 -5.15625 14.28125 -7.09375 C 12.613281 -9.019531 11.210938 -11.179688 10.078125 -13.578125 C 9.484375 -13.515625 8.882812 -13.628906 8.28125 -13.921875 C 7.6875 -14.222656 7.222656 -14.738281 6.890625 -15.46875 C 4.421875 -21.65625 3.035156 -28.125 2.734375 -34.875 C 2.441406 -41.632812 3.03125 -48.242188 4.5 -54.703125 C 4.894531 -56.367188 5.507812 -58.050781 6.34375 -59.75 C 7.175781 -61.445312 8.273438 -62.8125 9.640625 -63.84375 C 11.003906 -64.875 12.679688 -65.222656 14.671875 -64.890625 C 15.867188 -64.753906 16.945312 -64.300781 17.90625 -63.53125 C 18.875 -62.769531 19.59375 -61.828125 20.0625 -60.703125 C 20.59375 -59.234375 20.640625 -57.613281 20.203125 -55.84375 C 19.773438 -54.082031 19.492188 -52.4375 19.359375 -50.90625 C 19.234375 -49.050781 19.171875 -47.171875 19.171875 -45.265625 C 19.171875 -43.367188 19.203125 -41.488281 19.265625 -39.625 C 19.535156 -35.769531 20.101562 -31.976562 20.96875 -28.25 C 21.832031 -24.519531 22.929688 -20.859375 24.265625 -17.265625 C 24.992188 -16.734375 25.738281 -16.285156 26.5 -15.921875 C 27.269531 -15.554688 28.085938 -15.34375 28.953125 -15.28125 C 30.878906 -15.675781 32.539062 -16.472656 33.9375 -17.671875 C 34.738281 -18.796875 35.269531 -20.175781 35.53125 -21.8125 C 35.800781 -23.445312 35.96875 -25.0625 36.03125 -26.65625 C 36.101562 -28.25 36.171875 -29.613281 36.234375 -30.75 C 36.566406 -35.207031 36.734375 -39.664062 36.734375 -44.125 C 36.734375 -48.582031 36.703125 -53.039062 36.640625 -57.5 C 36.566406 -59.03125 37.226562 -60.191406 38.625 -60.984375 C 40.03125 -61.785156 41.363281 -61.820312 42.625 -61.09375 L 42.625 -62.09375 C 42.625 -62.625 42.820312 -63.101562 43.21875 -63.53125 C 43.625 -63.96875 44.09375 -64.15625 44.625 -64.09375 C 46.15625 -63.957031 47.269531 -63.390625 47.96875 -62.390625 C 48.664062 -61.390625 49.128906 -60.238281 49.359375 -58.9375 C 49.597656 -57.644531 49.75 -56.367188 49.8125 -55.109375 C 49.945312 -53.910156 50.078125 -52.710938 50.203125 -51.515625 C 50.335938 -50.316406 50.40625 -49.117188 50.40625 -47.921875 L 50.40625 -43.921875 C 50.613281 -39.796875 50.566406 -35.648438 50.265625 -31.484375 C 49.960938 -27.328125 49.25 -23.253906 48.125 -19.265625 Z M 18.96875 -54.40625 C 18.695312 -54.269531 18.5 -54.335938 18.375 -54.609375 C 18.300781 -54.140625 18.195312 -53.6875 18.0625 -53.25 C 17.9375 -52.820312 17.769531 -52.410156 17.5625 -52.015625 C 17.164062 -48.617188 16.984375 -45.222656 17.015625 -41.828125 C 17.054688 -38.429688 17.40625 -35.070312 18.0625 -31.75 C 18.195312 -31.082031 18.332031 -30.429688 18.46875 -29.796875 C 18.601562 -29.160156 18.738281 -28.546875 18.875 -27.953125 C 19 -27.953125 19.097656 -27.921875 19.171875 -27.859375 C 17.566406 -36.773438 17.5 -45.625 18.96875 -54.40625 Z M 18.96875 -54.40625 "/></g></g></g><g fill="#b2d12e" fill-opacity="1"><g transform="translate(173.379513, 196.346051)"><g><path d="M 57 -58.796875 C 56.863281 -58.398438 56.734375 -58.066406 56.609375 -57.796875 C 56.535156 -56.929688 56.363281 -56.066406 56.09375 -55.203125 C 55.832031 -54.335938 55.300781 -53.640625 54.5 -53.109375 C 54.164062 -52.835938 53.671875 -52.640625 53.015625 -52.515625 C 52.742188 -52.242188 52.507812 -52.109375 52.3125 -52.109375 C 49.78125 -51.640625 47.25 -51.171875 44.71875 -50.703125 C 42.1875 -50.242188 39.660156 -49.847656 37.140625 -49.515625 C 37.140625 -47.316406 37.117188 -45.117188 37.078125 -42.921875 C 37.046875 -40.722656 37.03125 -38.53125 37.03125 -36.34375 C 37.03125 -33.28125 37.046875 -30.234375 37.078125 -27.203125 C 37.117188 -24.171875 37.140625 -21.125 37.140625 -18.0625 C 37.203125 -16.332031 37.265625 -14.585938 37.328125 -12.828125 C 37.398438 -11.066406 37.46875 -9.320312 37.53125 -7.59375 C 37.46875 -6.394531 37.285156 -5.242188 36.984375 -4.140625 C 36.679688 -3.046875 36.066406 -2.128906 35.140625 -1.390625 L 35.140625 -1.59375 C 35.203125 -2.332031 35.234375 -3.050781 35.234375 -3.75 C 35.234375 -4.445312 35.269531 -5.128906 35.34375 -5.796875 L 35.34375 -9.578125 C 35.144531 -8.710938 34.976562 -7.648438 34.84375 -6.390625 C 34.707031 -5.128906 34.472656 -4 34.140625 -3 C 33.804688 -1.925781 33.109375 -1.125 32.046875 -0.59375 C 30.984375 -0.0625 29.914062 0.0664062 28.84375 -0.203125 C 26.78125 -0.867188 25.414062 -2.179688 24.75 -4.140625 C 24.09375 -6.109375 23.695312 -8.054688 23.5625 -9.984375 C 23.425781 -12.515625 23.375 -15.078125 23.40625 -17.671875 C 23.4375 -20.265625 23.488281 -22.828125 23.5625 -25.359375 C 23.695312 -27.890625 23.847656 -30.453125 24.015625 -33.046875 C 24.179688 -35.640625 24.296875 -38.234375 24.359375 -40.828125 L 24.5625 -45.21875 L 24.5625 -48.421875 C 23.894531 -48.421875 23.242188 -48.421875 22.609375 -48.421875 C 21.972656 -48.421875 21.328125 -48.421875 20.671875 -48.421875 C 17.941406 -48.421875 15.273438 -48.519531 12.671875 -48.71875 C 11.609375 -48.851562 10.5625 -49.035156 9.53125 -49.265625 C 8.5 -49.492188 7.519531 -49.875 6.59375 -50.40625 C 5.925781 -50.875 5.304688 -51.441406 4.734375 -52.109375 C 4.171875 -52.773438 3.722656 -53.507812 3.390625 -54.3125 C 2.390625 -54.84375 1.640625 -55.65625 1.140625 -56.75 C 0.648438 -57.851562 0.535156 -59.003906 0.796875 -60.203125 C 1.128906 -61.191406 1.742188 -62.085938 2.640625 -62.890625 C 3.546875 -63.691406 4.53125 -64.023438 5.59375 -63.890625 C 8.320312 -63.617188 11.050781 -63.398438 13.78125 -63.234375 C 16.507812 -63.066406 19.238281 -62.984375 21.96875 -62.984375 C 21.96875 -63.054688 21.984375 -63.109375 22.015625 -63.140625 C 22.046875 -63.171875 22.0625 -63.222656 22.0625 -63.296875 C 16.664062 -63.628906 11.273438 -64.226562 5.890625 -65.09375 C 5.753906 -65.09375 5.703125 -65.191406 5.734375 -65.390625 C 5.773438 -65.585938 5.859375 -65.65625 5.984375 -65.59375 C 12.972656 -65.1875 19.960938 -65.050781 26.953125 -65.1875 C 33.941406 -65.320312 40.894531 -65.6875 47.8125 -66.28125 C 48.34375 -66.414062 48.875 -66.5 49.40625 -66.53125 C 49.945312 -66.5625 50.445312 -66.613281 50.90625 -66.6875 C 51.175781 -66.6875 51.457031 -66.703125 51.75 -66.734375 C 52.050781 -66.765625 52.335938 -66.75 52.609375 -66.6875 C 53.335938 -66.820312 54.082031 -66.921875 54.84375 -66.984375 C 55.613281 -67.046875 56.367188 -67.113281 57.109375 -67.1875 C 57.566406 -67.25 57.84375 -67 57.9375 -66.4375 C 58.039062 -65.875 57.828125 -65.523438 57.296875 -65.390625 C 56.960938 -65.390625 56.734375 -65.351562 56.609375 -65.28125 C 56.867188 -65.15625 57.066406 -65.023438 57.203125 -64.890625 C 58.335938 -64.222656 58.882812 -63.171875 58.84375 -61.734375 C 58.8125 -60.304688 58.195312 -59.328125 57 -58.796875 Z M 12.671875 -51.109375 C 14.410156 -50.972656 16.175781 -50.972656 17.96875 -51.109375 C 15.96875 -51.304688 13.96875 -51.585938 11.96875 -51.953125 C 9.976562 -52.328125 8.019531 -52.8125 6.09375 -53.40625 C 6.882812 -52.675781 7.878906 -52.128906 9.078125 -51.765625 C 10.273438 -51.398438 11.472656 -51.179688 12.671875 -51.109375 Z M 12.671875 -51.109375 "/></g></g></g><g fill="#b2d12e" fill-opacity="1"><g transform="translate(226.984254, 196.346051)"><g><path d="M 51.015625 -31.34375 L 51.015625 -31.046875 C 50.878906 -29.847656 50.328125 -28.929688 49.359375 -28.296875 C 48.398438 -27.671875 47.351562 -27.421875 46.21875 -27.546875 C 46.15625 -25.085938 46.039062 -22.625 45.875 -20.15625 C 45.707031 -17.695312 45.554688 -15.238281 45.421875 -12.78125 C 45.359375 -11.507812 45.257812 -10.273438 45.125 -9.078125 C 44.988281 -7.878906 44.851562 -6.679688 44.71875 -5.484375 C 44.582031 -4.421875 44.347656 -3.171875 44.015625 -1.734375 C 43.691406 -0.304688 42.992188 0.703125 41.921875 1.296875 C 41.921875 1.359375 41.890625 1.390625 41.828125 1.390625 C 41.554688 1.796875 41.125 2.164062 40.53125 2.5 C 39.664062 3.03125 38.800781 3.175781 37.9375 2.9375 C 37.070312 2.707031 36.375 2.257812 35.84375 1.59375 C 35.375 1.0625 35.070312 0.429688 34.9375 -0.296875 C 34.800781 -1.023438 34.703125 -1.722656 34.640625 -2.390625 C 34.304688 -6.316406 34.109375 -10.175781 34.046875 -13.96875 C 33.835938 -17.769531 33.734375 -21.597656 33.734375 -25.453125 L 33.734375 -29.15625 C 33.410156 -29.15625 33.082031 -29.15625 32.75 -29.15625 C 32.414062 -29.15625 32.082031 -29.15625 31.75 -29.15625 C 27.882812 -29.15625 24.054688 -29.050781 20.265625 -28.84375 C 20.328125 -27.382812 20.375 -25.9375 20.40625 -24.5 C 20.445312 -23.070312 20.46875 -21.628906 20.46875 -20.171875 C 20.46875 -18.503906 20.46875 -16.835938 20.46875 -15.171875 C 20.46875 -13.503906 20.300781 -11.875 19.96875 -10.28125 L 19.96875 -9.984375 C 19.894531 -9.585938 19.859375 -9.171875 19.859375 -8.734375 C 19.859375 -8.304688 19.828125 -7.890625 19.765625 -7.484375 C 19.703125 -6.617188 19.550781 -5.6875 19.3125 -4.6875 C 19.082031 -3.6875 18.664062 -2.859375 18.0625 -2.203125 C 16.800781 -0.929688 15.367188 -0.257812 13.765625 -0.1875 C 12.171875 -0.125 10.910156 -0.960938 9.984375 -2.703125 C 9.847656 -2.960938 9.726562 -3.207031 9.625 -3.4375 C 9.53125 -3.675781 9.414062 -3.925781 9.28125 -4.1875 C 9.019531 -4.1875 8.738281 -4.285156 8.4375 -4.484375 C 8.132812 -4.691406 7.984375 -4.960938 7.984375 -5.296875 C 7.722656 -9.015625 7.523438 -12.738281 7.390625 -16.46875 C 7.253906 -20.195312 7.117188 -23.890625 6.984375 -27.546875 L 5.984375 -27.15625 C 4.859375 -26.6875 3.796875 -26.734375 2.796875 -27.296875 C 1.796875 -27.867188 1.128906 -28.71875 0.796875 -29.84375 C 0.460938 -30.976562 0.695312 -32.078125 1.5 -33.140625 C 1.894531 -33.671875 2.425781 -34.238281 3.09375 -34.84375 C 3.488281 -35.507812 4.003906 -36.039062 4.640625 -36.4375 C 5.273438 -36.832031 5.957031 -37.164062 6.6875 -37.4375 C 6.625 -39.4375 6.570312 -41.445312 6.53125 -43.46875 C 6.5 -45.5 6.421875 -47.546875 6.296875 -49.609375 C 6.222656 -51.941406 6.132812 -54.304688 6.03125 -56.703125 C 5.9375 -59.097656 5.921875 -61.460938 5.984375 -63.796875 C 5.984375 -63.921875 6.035156 -63.984375 6.140625 -63.984375 C 6.242188 -63.984375 6.296875 -63.921875 6.296875 -63.796875 C 6.828125 -61.398438 7.191406 -58.96875 7.390625 -56.5 C 7.585938 -54.039062 7.820312 -51.578125 8.09375 -49.109375 C 8.289062 -47.242188 8.488281 -45.363281 8.6875 -43.46875 C 8.882812 -41.570312 9.050781 -39.691406 9.1875 -37.828125 C 9.382812 -38.035156 9.484375 -38.140625 9.484375 -38.140625 L 9.6875 -38.140625 C 9.613281 -41.992188 9.507812 -45.847656 9.375 -49.703125 C 9.25 -53.566406 8.921875 -57.394531 8.390625 -61.1875 C 8.253906 -62.320312 8.550781 -63.351562 9.28125 -64.28125 C 10.007812 -65.21875 10.910156 -65.753906 11.984375 -65.890625 C 13.046875 -66.023438 14.078125 -65.738281 15.078125 -65.03125 C 16.078125 -64.332031 16.609375 -63.421875 16.671875 -62.296875 L 16.671875 -62.09375 C 17.003906 -62.09375 17.367188 -61.992188 17.765625 -61.796875 C 18.296875 -61.597656 18.660156 -61.128906 18.859375 -60.390625 C 19.066406 -59.660156 19.203125 -59.0625 19.265625 -58.59375 L 19.5625 -53.8125 C 19.695312 -51.539062 19.847656 -49.257812 20.015625 -46.96875 C 20.179688 -44.675781 20.332031 -42.394531 20.46875 -40.125 L 20.671875 -40.125 C 22.398438 -40.394531 24.144531 -40.613281 25.90625 -40.78125 C 27.664062 -40.945312 29.410156 -41.097656 31.140625 -41.234375 C 31.671875 -41.296875 32.203125 -41.359375 32.734375 -41.421875 C 33.273438 -41.492188 33.8125 -41.5625 34.34375 -41.625 C 34.269531 -43.6875 34.164062 -45.75 34.03125 -47.8125 C 33.90625 -49.875 33.773438 -51.9375 33.640625 -54 C 33.378906 -55.738281 33.265625 -57.519531 33.296875 -59.34375 C 33.328125 -61.175781 34.175781 -62.660156 35.84375 -63.796875 C 37.375 -64.785156 39.035156 -65.210938 40.828125 -65.078125 C 42.628906 -64.953125 44.023438 -64.023438 45.015625 -62.296875 C 45.953125 -60.765625 46.453125 -58.984375 46.515625 -56.953125 C 46.585938 -54.921875 46.65625 -53.039062 46.71875 -51.3125 C 46.78125 -51.175781 46.796875 -51.023438 46.765625 -50.859375 C 46.734375 -50.691406 46.71875 -50.539062 46.71875 -50.40625 C 46.851562 -48.082031 46.851562 -45.722656 46.71875 -43.328125 L 46.71875 -41.125 C 47.113281 -41.0625 47.507812 -40.976562 47.90625 -40.875 C 48.3125 -40.78125 48.75 -40.664062 49.21875 -40.53125 C 50.550781 -40.132812 51.484375 -39.367188 52.015625 -38.234375 C 52.546875 -37.097656 52.726562 -35.898438 52.5625 -34.640625 C 52.394531 -33.378906 51.878906 -32.28125 51.015625 -31.34375 Z M 23.859375 -31.84375 C 23.328125 -31.84375 22.773438 -31.828125 22.203125 -31.796875 C 21.640625 -31.765625 21.09375 -31.75 20.5625 -31.75 C 20.425781 -31.476562 20.296875 -31.3125 20.171875 -31.25 L 20.171875 -30.84375 C 24.097656 -31.25 27.957031 -31.453125 31.75 -31.453125 C 32.082031 -31.378906 32.429688 -31.34375 32.796875 -31.34375 C 33.160156 -31.34375 33.472656 -31.34375 33.734375 -31.34375 L 33.734375 -31.84375 C 32.078125 -31.90625 30.429688 -31.953125 28.796875 -31.984375 C 27.171875 -32.023438 25.523438 -31.976562 23.859375 -31.84375 Z M 23.859375 -31.84375 "/></g></g></g><g fill="#e2e2e2" fill-opacity="1"><g transform="translate(111.304905, 251.495784)"><g><path d="M 0.5 0 L 21.640625 -50.171875 L 34.953125 -50.171875 L 56.15625 0 L 41.34375 0 L 37.796875 -8.96875 L 18.5 -8.96875 L 14.953125 0 Z M 22.5625 -19.71875 L 33.734375 -19.71875 L 28.1875 -33.8125 Z M 22.5625 -19.71875 "/></g></g></g><g fill="#e2e2e2" fill-opacity="1"><g transform="translate(167.883416, 251.495784)"><g><path d="M 4.40625 0 L 4.40625 -49.8125 L 25.828125 -49.8125 C 32.046875 -49.8125 37.039062 -48.269531 40.8125 -45.1875 C 44.582031 -42.101562 46.46875 -37.835938 46.46875 -32.390625 L 46.46875 -32.234375 C 46.46875 -29.296875 45.929688 -26.695312 44.859375 -24.4375 C 43.796875 -22.1875 42.316406 -20.3125 40.421875 -18.8125 C 38.523438 -17.320312 36.269531 -16.1875 33.65625 -15.40625 C 31.050781 -14.625 28.207031 -14.234375 25.125 -14.234375 L 18.21875 -14.234375 L 18.21875 0 Z M 18.21875 -25.046875 L 24.84375 -25.046875 C 27.257812 -25.046875 29.175781 -25.648438 30.59375 -26.859375 C 32.019531 -28.078125 32.734375 -29.65625 32.734375 -31.59375 L 32.734375 -31.75 C 32.734375 -33.882812 32.007812 -35.492188 30.5625 -36.578125 C 29.113281 -37.671875 27.179688 -38.21875 24.765625 -38.21875 L 18.21875 -38.21875 Z M 18.21875 -25.046875 "/></g></g></g><g fill="#e2e2e2" fill-opacity="1"><g transform="translate(215.779443, 251.495784)"><g><path d="M 4.40625 0 L 4.40625 -49.8125 L 25.828125 -49.8125 C 32.046875 -49.8125 37.039062 -48.269531 40.8125 -45.1875 C 44.582031 -42.101562 46.46875 -37.835938 46.46875 -32.390625 L 46.46875 -32.234375 C 46.46875 -29.296875 45.929688 -26.695312 44.859375 -24.4375 C 43.796875 -22.1875 42.316406 -20.3125 40.421875 -18.8125 C 38.523438 -17.320312 36.269531 -16.1875 33.65625 -15.40625 C 31.050781 -14.625 28.207031 -14.234375 25.125 -14.234375 L 18.21875 -14.234375 L 18.21875 0 Z M 18.21875 -25.046875 L 24.84375 -25.046875 C 27.257812 -25.046875 29.175781 -25.648438 30.59375 -26.859375 C 32.019531 -28.078125 32.734375 -29.65625 32.734375 -31.59375 L 32.734375 -31.75 C 32.734375 -33.882812 32.007812 -35.492188 30.5625 -36.578125 C 29.113281 -37.671875 27.179688 -38.21875 24.765625 -38.21875 L 18.21875 -38.21875 Z M 18.21875 -25.046875 "/></g></g></g></svg>